<svg version="1.1" id="Layer_1" xmlns="http://www.w3.org/2000/svg" xmlns:xlink="http://www.w3.org/1999/xlink" x="0px" y="0px"
	 width="100%" viewBox="0 0 1024 1024" enable-background="new 0 0 1024 1024" xml:space="preserve">
<path fill="#000000" opacity="1.000000" stroke="none" 
	d="
M494.049408,684.252686 
	C497.860870,707.824768 503.539764,730.536194 509.706604,753.123657 
	C513.731812,767.867004 518.178894,782.495178 522.430664,797.176758 
	C522.926147,798.887573 523.855957,800.555481 523.014343,802.870667 
	C516.594238,802.357727 510.188568,801.730225 503.767731,801.381348 
	C500.507202,801.204163 500.319977,798.799255 499.657318,796.628296 
	C491.067413,768.486572 483.191925,740.145508 477.092590,711.355164 
	C470.541229,680.431091 465.239960,649.309875 465.726868,617.531494 
	C465.907867,605.718079 467.268890,593.995544 470.132202,582.497192 
	C476.911652,555.272644 493.338715,537.756165 521.240112,531.815674 
	C522.537659,531.539368 523.823059,531.194153 525.097656,530.824219 
	C533.414734,528.410034 533.129272,528.446045 531.921875,520.105408 
	C530.838440,512.621643 531.872620,505.226410 534.226257,497.970490 
	C541.118042,476.724213 552.061768,457.468567 563.502869,438.498016 
	C573.999146,421.094025 585.314270,404.264709 599.285706,389.316040 
	C613.581665,374.020172 631.354614,370.245422 651.195129,372.358276 
	C651.992615,372.443207 652.806946,372.369141 653.594788,372.369141 
	C654.808594,370.769104 653.778503,369.361115 653.302917,368.083252 
	C639.125732,329.992493 616.835999,298.205902 581.448425,276.894989 
	C562.636536,265.566223 542.030579,259.392700 520.205811,257.228058 
	C495.299164,254.757706 470.677734,255.824203 446.701294,263.670929 
	C411.405304,275.222198 384.454773,297.537079 364.233002,328.327515 
	C344.670959,358.113434 333.450836,391.276917 325.416779,425.653076 
	C318.157806,456.712708 313.291138,488.187469 309.159821,519.810730 
	C305.394501,548.632324 302.426880,577.533447 299.538940,606.441589 
	C297.656067,625.288879 296.630035,644.223145 295.302429,663.124268 
	C293.625458,686.999756 291.936707,710.875122 290.438934,734.762207 
	C289.554260,748.871033 288.852386,762.997375 288.450317,777.126648 
	C288.330750,781.328247 286.985931,782.830078 282.916687,782.377625 
	C278.625336,781.900330 274.311890,781.591125 270.000519,781.336243 
	C267.255981,781.174011 266.894470,779.712769 267.033936,777.310791 
	C267.670105,766.355652 268.119171,755.389832 268.668457,744.429504 
	C269.750183,722.844543 270.722717,701.255127 272.501740,679.708557 
	C273.445068,668.283203 273.829254,656.812561 274.701996,645.380371 
	C275.814270,630.809509 277.123260,616.253113 278.427277,601.697632 
	C279.434326,590.456116 280.484192,579.217224 281.658508,567.992188 
	C283.350647,551.817688 284.872253,535.616760 287.016968,519.500366 
	C289.597931,500.105377 292.341156,480.713806 295.746460,461.450256 
	C304.049835,414.478790 314.625183,368.132660 339.246063,326.444031 
	C365.963013,281.206329 403.732391,250.245819 455.740936,238.495239 
	C477.465179,233.586929 499.452087,232.991486 521.637756,235.485260 
	C548.006836,238.449265 572.694641,246.215942 595.372498,259.932953 
	C628.738464,280.114838 651.813965,309.206085 667.281555,344.620178 
	C674.151428,360.349304 679.517639,376.619476 682.936279,393.456757 
	C684.663757,401.964691 688.821167,409.315338 692.845703,416.782440 
	C719.081726,465.460144 745.386108,514.101257 771.498718,562.845093 
	C777.706726,574.433472 782.871155,586.486389 786.645020,599.176636 
	C795.235046,628.061829 774.666321,647.321350 754.736633,652.343689 
	C737.348511,656.725647 721.432251,652.327332 706.299316,644.046448 
	C687.283997,633.640991 669.706421,620.925903 651.479309,609.256409 
	C623.289185,591.208313 595.160034,573.057861 567.282349,554.533447 
	C559.424988,549.312256 551.747131,547.186218 542.421204,549.125061 
	C533.290100,551.023376 524.152283,552.693909 515.513855,556.316284 
	C506.194336,560.224304 499.341583,566.663086 495.420654,576.102356 
	C487.761444,594.541199 486.738007,613.840942 487.815125,633.438660 
	C488.745972,650.374756 490.776184,667.171936 494.049408,684.252686 
M581.293457,450.749786 
	C574.999146,461.144073 568.574890,471.463135 563.234558,482.403015 
	C560.383789,488.242859 557.802856,494.179535 555.977051,500.437164 
	C551.883667,514.467163 556.524719,528.029602 568.840271,536.201965 
	C588.538330,549.273438 608.392517,562.110596 628.230225,574.970581 
	C655.753357,592.812744 683.187683,610.797852 710.933960,628.287109 
	C723.026855,635.909485 736.323181,639.960815 750.915283,636.676025 
	C763.283142,633.892029 775.885681,620.663208 771.883972,605.369934 
	C768.596863,592.807739 763.156555,581.326782 757.078003,570.035645 
	C737.425354,533.530518 717.831909,496.992981 698.021851,460.573425 
	C688.954407,443.903564 680.809265,426.701202 670.540527,410.720642 
	C663.250671,399.375854 653.308960,391.505035 638.888733,392.433716 
	C627.105530,393.192596 618.756775,400.211365 611.330078,408.768219 
	C600.153137,421.645996 590.794189,435.794403 581.293457,450.749786 
z"/>
<path fill="#000000" opacity="1.000000" stroke="none" 
	d="
M534.149719,376.624023 
	C529.071228,390.900299 516.582397,396.376282 506.318481,396.028137 
	C492.822937,395.570343 482.404541,387.300781 479.372101,374.730621 
	C476.698730,363.648895 478.839966,353.384125 487.929474,345.738007 
	C497.296967,337.858002 508.007843,336.238770 519.146423,341.494385 
	C529.681641,346.465302 535.218140,355.031860 535.366882,366.873260 
	C535.406799,370.054108 535.269958,373.185547 534.149719,376.624023 
z"/>
<path fill="#000000" opacity="1.000000" stroke="none" 
	d="
M712.461914,533.410767 
	C717.629944,531.314392 722.107788,533.750916 726.476257,535.075500 
	C729.286743,535.927612 728.351624,544.173523 725.365234,547.747314 
	C722.376465,551.324036 719.409241,549.365173 717.396912,547.006104 
	C714.214111,543.274841 709.872681,539.672302 712.461914,533.410767 
z"/>
<path fill="#000000" opacity="1.000000" stroke="none" 
	d="
M709.700256,523.758301 
	C707.394287,524.060059 705.551453,523.848572 704.763611,521.782654 
	C703.939453,519.621521 704.598633,517.475220 705.687561,515.603455 
	C706.646240,513.955566 708.302002,514.085388 709.497375,515.280701 
	C712.046570,517.829529 713.596741,520.616089 709.700256,523.758301 
z"/>
</svg>